<svg xmlns="http://www.w3.org/2000/svg"  viewBox="0 0 100 100" width="100px" height="100px"><circle cx="13" cy="29" r="2" fill="#78a0cf"/><circle cx="77" cy="13" r="1" fill="#f1bc19"/><circle cx="50" cy="50" r="37" fill="#cee1f4"/><circle cx="83" cy="15" r="4" fill="#f1bc19"/><circle cx="87" cy="24" r="2" fill="#78a0cf"/><circle cx="81" cy="76" r="2" fill="#fbcd59"/><circle cx="15" cy="63" r="4" fill="#fbcd59"/><circle cx="25" cy="87" r="2" fill="#78a0cf"/><circle cx="18.5" cy="53.5" r="2.5" fill="#fff"/><circle cx="21" cy="67" r="1" fill="#f1bc19"/><circle cx="80" cy="34" r="1" fill="#fff"/><g><path fill="#dee0e2" d="M31,60.5c-6.396,0-11.6-5.204-11.6-11.6S24.604,37.3,31,37.3s11.6,5.204,11.6,11.6 S37.396,60.5,31,60.5z M31,40.4c-4.687,0-8.5,3.813-8.5,8.5s3.813,8.5,8.5,8.5s8.5-3.813,8.5-8.5S35.687,40.4,31,40.4z"/><path fill="#dee0e2" d="M70,60.5c-6.396,0-11.6-5.204-11.6-11.6S63.604,37.3,70,37.3s11.6,5.204,11.6,11.6 S76.396,60.5,70,60.5z M70,40.4c-4.687,0-8.5,3.813-8.5,8.5s3.813,8.5,8.5,8.5s8.5-3.813,8.5-8.5S74.687,40.4,70,40.4z"/><path fill="#dee0e2" d="M57,60.5c-6.396,0-11.6-5.204-11.6-11.6S50.604,37.3,57,37.3s11.6,5.204,11.6,11.6 S63.396,60.5,57,60.5z M57,40.4c-4.687,0-8.5,3.813-8.5,8.5s3.813,8.5,8.5,8.5s8.5-3.813,8.5-8.5S61.687,40.4,57,40.4z"/><path fill="#dee0e2" d="M44,60.5c-6.396,0-11.6-5.204-11.6-11.6S37.604,37.3,44,37.3s11.6,5.204,11.6,11.6 S50.396,60.5,44,60.5z M44,40.4c-4.687,0-8.5,3.813-8.5,8.5s3.813,8.5,8.5,8.5s8.5-3.813,8.5-8.5S48.687,40.4,44,40.4z"/><g><ellipse cx="37.5" cy="48.9" fill="none" stroke="#472b29" stroke-miterlimit="10" rx="2" ry="5.466"/><path fill="none" stroke="#472b29" stroke-linecap="round" stroke-linejoin="round" stroke-miterlimit="10" stroke-width="1.4" d="M71.254,37.366c-2.881-0.304-5.58,0.455-7.754,1.932c-1.856-1.26-4.093-1.998-6.5-1.998s-4.644,0.738-6.5,1.998 c-1.856-1.26-4.093-1.998-6.5-1.998c-2.429,0-4.684,0.754-6.55,2.035c-2.177-1.496-4.885-2.272-7.781-1.971 c-5.351,0.557-9.706,4.877-10.296,10.224C18.602,54.569,24.072,60.5,30.9,60.5c2.429,0,4.684-0.754,6.55-2.035 C39.316,59.746,41.571,60.5,44,60.5c2.37,0,4.576-0.715,6.415-1.94c0.052-0.035,0.118-0.035,0.171,0 C52.424,59.785,54.63,60.5,57,60.5c2.407,0,4.644-0.738,6.5-1.998c1.856,1.26,4.093,1.998,6.5,1.998 c6.832,0,12.303-5.937,11.526-12.922C80.933,42.243,76.592,37.93,71.254,37.366z"/><ellipse cx="63.5" cy="48.9" fill="none" stroke="#472b29" stroke-miterlimit="10" rx="2" ry="5.466"/><ellipse cx="50.5" cy="48.9" fill="none" stroke="#472b29" stroke-miterlimit="10" rx="2" ry="5.466"/><path fill="none" stroke="#472b29" stroke-miterlimit="10" d="M32.5,48.9c0-2.809,1.016-5.384,2.695-7.383 C33.956,40.81,32.526,40.4,31,40.4c-4.687,0-8.5,3.813-8.5,8.5c0,4.687,3.813,8.5,8.5,8.5c1.526,0,2.956-0.41,4.195-1.117 C33.516,54.284,32.5,51.709,32.5,48.9z"/><path fill="none" stroke="#472b29" stroke-miterlimit="10" d="M70,40.4c-1.526,0-2.956,0.41-4.195,1.117 c1.679,1.999,2.695,4.574,2.695,7.383s-1.016,5.384-2.695,7.383C67.044,56.99,68.474,57.4,70,57.4c4.687,0,8.5-3.813,8.5-8.5 C78.5,44.213,74.687,40.4,70,40.4z"/><path fill="none" stroke="#472b29" stroke-miterlimit="10" d="M61.195,41.517C59.956,40.81,58.526,40.4,57,40.4 s-2.956,0.41-4.195,1.117c1.679,1.999,2.695,4.574,2.695,7.383s-1.016,5.384-2.695,7.383C54.044,56.99,55.474,57.4,57,57.4 s2.956-0.41,4.195-1.117C59.516,54.284,58.5,51.709,58.5,48.9S59.516,43.516,61.195,41.517z"/><path fill="none" stroke="#472b29" stroke-miterlimit="10" d="M45.5,48.9c0-2.809,1.016-5.384,2.695-7.383 C46.956,40.81,45.526,40.4,44,40.4s-2.956,0.41-4.195,1.117c1.679,1.999,2.695,4.574,2.695,7.383s-1.016,5.384-2.695,7.383 C41.044,56.99,42.474,57.4,44,57.4s2.956-0.41,4.195-1.117C46.516,54.284,45.5,51.709,45.5,48.9z"/></g></g></svg>