<svg xmlns="http://www.w3.org/2000/svg"  viewBox="0 0 100 100" width="100px" height="100px"><circle cx="79" cy="13" r="1" fill="#f1bc19"/><circle cx="50" cy="50" r="37" fill="#c0e5e4"/><circle cx="85" cy="15" r="4" fill="#f1bc19"/><circle cx="13" cy="29" r="2" fill="#00a5a5"/><circle cx="80" cy="78" r="2" fill="#fbcd59"/><circle cx="26" cy="76" r="4" fill="#fbcd59"/><circle cx="27" cy="87" r="2" fill="#00a5a5"/><circle cx="58.5" cy="80.5" r="2.5" fill="#fff"/><circle cx="23.029" cy="68.971" r=".971" fill="#fff"/><circle cx="85" cy="31" r="1" fill="#f1bc19"/><circle cx="78" cy="68" r="2" fill="#fff"/><circle cx="79" cy="34" r="1" fill="#fff"/><g><circle cx="50" cy="50.3" r="24.246" fill="#7c8ba2"/><path fill="#472b29" d="M50,26.4c13.013,0,23.6,10.587,23.6,23.6S63.013,73.6,50,73.6S26.4,63.013,26.4,50 S36.987,26.4,50,26.4 M50,25c-13.807,0-25,11.193-25,25s11.193,25,25,25s25-11.193,25-25S63.807,25,50,25L50,25z"/><path fill="#fff" d="M49.95,36.477c-7.417,0-13.45,6.034-13.45,13.45s6.033,13.45,13.45,13.45S63.4,57.343,63.4,49.926 S57.366,36.477,49.95,36.477L49.95,36.477z"/><path fill="#1772af" d="M50,36.8v13.5H36.5C36.5,42.859,42.559,36.8,50,36.8z"/><path fill="#1772af" d="M63.4,50.3c0,7.386-6.014,13.4-13.4,13.4V50.3H63.4z"/><path fill="none" stroke="#472b29" stroke-miterlimit="10" d="M50,36.5c-7.444,0-13.5,6.056-13.5,13.5S42.556,63.5,50,63.5 c7.444,0,13.5-6.057,13.5-13.501S57.444,36.5,50,36.5L50,36.5z"/><line x1="50.25" x2="50.263" y1="60.25" y2="63.477" fill="none" stroke="#472b29" stroke-linecap="round" stroke-linejoin="round" stroke-miterlimit="10" stroke-width=".5"/><line x1="50.25" x2="50.25" y1="48.25" y2="57.75" fill="none" stroke="#472b29" stroke-linecap="round" stroke-linejoin="round" stroke-miterlimit="10" stroke-width=".5"/><line x1="50.25" x2="50.25" y1="36.7" y2="45.75" fill="none" stroke="#472b29" stroke-linecap="round" stroke-linejoin="round" stroke-miterlimit="10" stroke-width=".5"/><line x1="42.75" x2="36.5" y1="50.25" y2="50.25" fill="none" stroke="#472b29" stroke-linecap="round" stroke-linejoin="round" stroke-miterlimit="10" stroke-width=".5"/><line x1="63.434" x2="45.25" y1="50.25" y2="50.25" fill="none" stroke="#472b29" stroke-linecap="round" stroke-linejoin="round" stroke-miterlimit="10" stroke-width=".5"/><path fill="#fff" d="M39.879,36.685c-0.073-0.518-0.386-0.954-0.866-1.172c-0.481-0.218-1.039-0.136-1.464,0.162 c-0.035,0.026-0.067,0.056-0.099,0.082c0.07-0.24,0.091-0.484,0.031-0.727c-0.057-0.24-0.183-0.46-0.36-0.632 c-0.359-0.352-0.905-0.466-1.375-0.291c-0.22,0.084-0.42,0.227-0.568,0.409c-0.084,0.106-0.167,0.209-0.253,0.317 c-0.44,0.548-0.88,1.097-1.319,1.645c-0.378,0.472-0.754,0.945-1.133,1.416c-0.025,0.03-0.049,0.065-0.073,0.094 c-0.002,0,0.048,0.039,0.052,0.041c0.147,0.119,0.292,0.235,0.439,0.352c0.554,0.445,1.107,0.889,1.662,1.332 c0.547,0.44,1.097,0.879,1.646,1.318c0.14,0.113,0.28,0.225,0.42,0.335c0.004,0.007,0.038,0.039,0.043,0.031 c0.028-0.035,0.056-0.071,0.083-0.104c0.377-0.471,0.755-0.941,1.13-1.412c0.451-0.566,0.903-1.127,1.354-1.691 c0.233-0.289,0.49-0.566,0.601-0.928C39.888,37.073,39.899,36.879,39.879,36.685L39.879,36.685L39.879,36.685z M35.021,38.217 c-0.229-0.181-0.457-0.365-0.685-0.548c-0.087-0.069-0.174-0.138-0.261-0.209c-0.003-0.002,0.09-0.114,0.096-0.121 c0.424-0.533,0.85-1.064,1.276-1.595c0.112-0.138,0.213-0.289,0.385-0.358c0.234-0.099,0.511-0.037,0.682,0.151 c0.136,0.151,0.183,0.358,0.139,0.556c-0.051,0.177-0.176,0.306-0.287,0.445c-0.223,0.281-0.448,0.561-0.671,0.84 C35.47,37.656,35.244,37.934,35.021,38.217L35.021,38.217L35.021,38.217z M38.5,37.539c-0.145,0.18-0.288,0.359-0.433,0.54 c-0.396,0.496-0.793,0.991-1.189,1.485c-0.002,0.002-0.012,0.019-0.016,0.017c-0.021-0.017-0.04-0.035-0.06-0.05 c-0.109-0.086-0.216-0.171-0.324-0.257c-0.187-0.151-0.375-0.302-0.561-0.451c0.359-0.449,0.72-0.898,1.078-1.347 c0.176-0.22,0.351-0.438,0.526-0.658c0.125-0.155,0.283-0.268,0.491-0.274c0.25-0.006,0.468,0.138,0.574,0.361 C38.678,37.121,38.647,37.355,38.5,37.539L38.5,37.539z M64.589,33.774l-1.055-0.979L60.1,37.304l1.056,0.979l3.764-1.723 l-2.506,3.295L63.14,41.1l5.15-2.364l-0.727-1.247l-2.974,1.363l2.113-2.773l-0.925-1.154l-3.167,1.453L64.589,33.774z M48.493,30.375l1.205,3.805h0.95l1.203-3.805l0.126,3.805l1.332,0.213l-0.19-5.708l-1.71-0.215l-1.235,4.02l-1.237-4.02 l-1.71,0.215l-0.19,5.708l1.33-0.213L48.493,30.375z"/></g></svg>