<svg xmlns="http://www.w3.org/2000/svg"  viewBox="0 0 100 100" width="100px" height="100px"><circle cx="78" cy="14" r="1" fill="#f1bc19"/><circle cx="50" cy="50" r="38" fill="#f9dbd2"/><circle cx="84" cy="16" r="4" fill="#f1bc19"/><circle cx="14" cy="26" r="2" fill="#ee3e54"/><circle cx="78" cy="77" r="2" fill="#fbcd59"/><circle cx="17" cy="78" r="4" fill="#fbcd59"/><circle cx="24" cy="83" r="2" fill="#ee3e54"/><circle cx="66.483" cy="78.517" r="2.483" fill="#fff"/><circle cx="16" cy="48" r="1" fill="#fff"/><circle cx="86" cy="31" r="1" fill="#f1bc19"/><circle cx="80" cy="66" r="2" fill="#fff"/><g><polygon fill="#dee0e2" points="15.7,58.3 23.6,42.7 37.7,42.7 37.7,37.7 62.306,37.7 62.3,42.7 85.3,42.7 77.4,58.3 62.3,58.3 62.3,63.3 37.7,63.3 37.694,58.3"/><polygon fill="none" stroke="#472b29" stroke-linecap="round" stroke-linejoin="round" stroke-miterlimit="10" stroke-width="1.4" points="15.7,58.3 23.6,42.7 37.7,42.7 37.7,37.7 62.306,37.7 62.3,42.7 85.3,42.7 77.4,58.3 62.3,58.3 62.3,63.3 37.7,63.3 37.694,58.3"/><path fill="#fcc938" d="M25.6,54.664l4.211-8.172L42.5,46.6v-5.1H58V46h17.8c0.195,0,0.601,0.35,0.519,0.528l-3.612,8.035 L57.5,54.5v4h-15v-4L25.6,54.664z"/><polygon fill="#f8e55b" points="25.6,53.958 29.433,46.827 29.5,46 42,46 42.5,41.5 50.328,41.5 50.5,58.5 42.5,58.5 42.5,54.5 25.777,54.666"/><polyline fill="none" stroke="#472b29" stroke-linecap="round" stroke-linejoin="round" stroke-miterlimit="10" points="57.5,44.5 57.5,46.5 60.5,46.5"/><polyline fill="none" stroke="#472b29" stroke-linecap="round" stroke-linejoin="round" stroke-miterlimit="10" points="36.5,46.5 42.5,46.5 42.5,41.5 57.501,41.508"/><polyline fill="none" stroke="#472b29" stroke-linecap="round" stroke-linejoin="round" stroke-miterlimit="10" points="71.4,46.5 76.5,46.5 72.5,54.5 57.5,54.5 57.5,58.5 42.5,58.5 42.5,54.5 25.6,54.664 29.4,46.5 31.5,46.5"/><line x1="63.5" x2="68.6" y1="46.5" y2="46.5" fill="none" stroke="#472b29" stroke-linecap="round" stroke-linejoin="round" stroke-miterlimit="10"/></g></svg>