<svg xmlns="http://www.w3.org/2000/svg"  viewBox="0 0 100 100" width="100px" height="100px"><circle cx="77" cy="13" r="1" fill="#f1bc19"/><circle cx="50" cy="50" r="37" fill="#e4e4f9"/><circle cx="83" cy="15" r="4" fill="#f1bc19"/><circle cx="87" cy="24" r="2" fill="#8889b9"/><circle cx="81" cy="76" r="2" fill="#fbcd59"/><circle cx="15" cy="63" r="4" fill="#fbcd59"/><circle cx="25" cy="87" r="2" fill="#8889b9"/><circle cx="18.5" cy="51.5" r="2.5" fill="#fff"/><circle cx="79.5" cy="33.5" r="1.5" fill="#fff"/><g><ellipse cx="50" cy="50.086" fill="#dee0e2" rx="33.3" ry="14.286"/><ellipse cx="50" cy="50.061" fill="#3678ba" rx="29.605" ry="10.508"/><ellipse cx="50" cy="50.086" fill="none" stroke="#472b29" stroke-linecap="round" stroke-linejoin="round" stroke-miterlimit="10" stroke-width="1.4" rx="33.3" ry="14.286"/><path fill="#fff" d="M66.903,46.388c-0.119,0-0.18,0.015-0.236,0.127l0,0c-0.184,0.359-2.451,4.049-2.868,4.713l0,0 c-0.07,0.101-0.156,0.088-0.167-0.028l0,0c-0.042-0.395-0.378-0.847-0.907-1.065l0,0c-0.402-0.166-0.797-0.197-1.205-0.141l0,0 c-0.738,0.101-1.397,0.497-1.976,0.944l0,0c-0.873,0.673-1.625,1.547-2.597,2.191l0,0c-0.53,0.351-1.257,0.658-1.742,0.201l0,0 c-0.44-0.415-0.391-1.334,0.282-2.045l0,0c0.072-0.075,0.156-0.013,0.143,0.054l0,0c-0.064,0.322,0.015,0.642,0.254,0.867l0,0 c0.294,0.267,0.714,0.298,1.074,0.12l0,0c0.424-0.213,0.675-0.626,0.746-1.095l0,0c0.113-0.726-0.437-1.367-1.127-1.418l0,0 c-0.559-0.04-1.096,0.158-1.618,0.596l0,0c-0.261,0.221-0.411,0.384-0.638,0.711l0,0c-0.056,0.079-0.141,0.088-0.138-0.031l0,0 c0.027-0.93-0.353-1.453-1.109-1.47l0,0c-0.587-0.013-1.215,0.311-1.705,0.706l0,0c-0.535,0.438-1.005,1.017-1.507,1.562l0,0 c-0.062,0.067-0.118,0.065-0.135-0.065l0,0c-0.015-0.617-0.167-1.213-0.448-1.637l0,0c-0.099-0.148-0.308-0.221-0.484-0.121l0,0 c-0.081,0.044-0.363,0.176-0.569,0.345l0,0c-0.101,0.085-0.142,0.209-0.097,0.368l0,0c0.27,0.92,0.212,1.966-0.156,2.849l0,0 c-0.338,0.809-0.994,1.54-1.764,1.787l0,0c-0.508,0.164-1.037,0.083-1.363-0.373l0,0c-0.448-0.631-0.268-1.729,0.402-2.64l0,0 c0.591-0.802,1.443-1.311,2.296-1.641l0,0c0.101-0.039,0.121-0.105,0.093-0.191l0,0c-0.046-0.141-0.121-0.335-0.15-0.424l0,0 c-0.078-0.211-0.297-0.245-0.565-0.215l0,0c-0.619,0.073-1.177,0.288-1.728,0.588l0,0c-1.443,0.785-2.167,2.305-2.484,3.118l0,0 c-0.152,0.392-0.284,0.634-0.452,0.851l0,0c-0.227,0.291-0.513,0.555-1.037,1.022l0,0c-0.046,0.042-0.082,0.131-0.042,0.214l0,0 c0.054,0.112,0.326,0.502,0.402,0.536l0,0c0.085,0.042,0.184-0.016,0.223-0.046l0,0c0.366-0.252,0.803-0.65,1.018-0.921l0,0 c0.074-0.093,0.151-0.054,0.191,0.088l0,0c0.2,0.723,0.722,1.315,1.446,1.562l0,0c1.324,0.454,2.697-0.203,3.734-1.346l0,0 c0.659-0.726,0.896-1.194,1.149-1.511l0,0c0.427-0.539,1.271-1.744,2.277-2.516l0,0c0.368-0.287,0.806-0.504,1.023-0.359l0,0 c0.176,0.116,0.233,0.386-0.049,0.907l0,0c-1.025,1.903-2.634,4.229-2.911,4.772l0,0c-0.05,0.093-0.008,0.168,0.09,0.168l0,0 c0.537-0.003,1.068-0.001,1.555-0.001l0,0c0.081-0.004,0.118-0.042,0.158-0.101l0,0c0.786-1.249,1.628-2.535,2.421-3.766l0,0 c0.045-0.071,0.085-0.016,0.087,0.016l0,0c0.016,0.287,0.086,0.677,0.252,0.933l0,0c0.3,0.474,0.725,0.677,1.197,0.681l0,0 c0.374,0.004,0.565-0.054,0.968-0.206l0,0c0.33-0.125,0.595-0.287,0.797-0.435l0,0c0.118-0.083,0.139,0.057,0.137,0.078l0,0 c-0.182,0.992,0.044,2.169,1.014,2.657l0,0c1.162,0.582,2.44-0.237,3.176-0.975l0,0c0.072-0.071,0.148-0.063,0.156,0.089l0,0 c0.015,0.281,0.142,0.617,0.371,0.852l0,0c0.615,0.627,1.86,0.378,3.106-0.602l0,0c0.801-0.627,1.638-1.515,2.395-2.455l0,0 c0.029-0.036,0.049-0.094-0.008-0.155l0,0c-0.115-0.121-0.282-0.263-0.396-0.37l0,0c-0.052-0.044-0.129-0.032-0.172,0.003l0,0 c-0.775,0.749-1.474,1.604-2.484,2.31l0,0c-0.339,0.241-0.883,0.436-1.127,0.101l0,0c-0.095-0.131-0.084-0.311,0.011-0.547l0,0 c0.294-0.745,4.973-8.22,5.214-8.645l0,0c0.042-0.074,0-0.128-0.093-0.128l0,0c-0.48,0-1.108,0.001-1.608,0.001 M59.497,55.512 c-0.24-0.127-0.343-0.467-0.338-0.741l0,0c0.012-0.777,0.35-1.573,0.977-2.356l0,0c0.765-0.955,1.609-1.451,2.165-1.179l0,0 c0.574,0.277,0.39,0.953,0.134,1.482l0,0c-0.019,0.042-0.02,0.075-0.011,0.11l0,0c0.009,0.055,0.08,0.108,0.148,0.133l0,0 c0.025,0.009,0.038,0.027,0.011,0.085l0,0c-0.197,0.431-0.38,0.681-0.628,1.054l0,0c-0.228,0.346-0.485,0.617-0.798,0.877l0,0 c-0.363,0.304-0.834,0.63-1.278,0.63l0,0C59.75,55.607,59.62,55.579,59.497,55.512"/><path fill="#fff" d="M42.12,42.287c-0.445,0-0.891,0.018-1.341,0.054l0,0c-2.863,0.245-5.587,1.884-5.594,4.368l0,0 c0,1.262,0.88,2.282,2.247,2.238l0,0c1.606-0.055,2.925-1.363,3.616-3.011l0,0c0.261-0.625-0.224-0.885-0.455-0.525l0,0 c-0.412,0.649-0.993,1.151-1.621,1.464l0,0c-0.756,0.377-1.564,0.275-1.808-0.35l0,0c-0.345-0.879,0.371-2.195,2.005-2.815l0,0 c2.359-0.887,4.829-0.3,7.204,0.153l0,0c0.034,0,0.16,0.071,0.048,0.131l0,0c-0.424,0.236-0.843,0.427-1.495,0.998l0,0 c-0.469,0.407-1.08,0.948-1.555,1.539l0,0c-0.469,0.582-0.803,1.101-1.243,1.675l0,0c-0.062,0.083-0.138,0.079-0.137,0.079l0,0 c-1.075,0.184-2.127,0.307-3.091,0.988l0,0c-0.199,0.14-0.286,0.388-0.164,0.578l0,0c0.109,0.168,0.357,0.186,0.528,0.059l0,0 c0.599-0.455,1.215-0.669,1.922-0.688l0,0c0.03,0.001,0.045,0.008,0.054,0.026l0,0c0.008,0.011,0,0.034-0.011,0.051l0,0 c-1.059,1.492-1.324,1.828-2.119,2.753l0,0c-0.408,0.475-0.809,0.877-1.257,1.294l0,0c-1.808,1.706-3.752,1.678-4.45,0.607l0,0 c-0.416-0.642-0.362-1.315-0.087-1.876l0,0c0.335-0.685,1.015-1.186,1.58-1.48l0,0c0.209-0.109,0.27-0.381,0.06-0.629l0,0 c-0.133-0.163-0.457-0.191-0.699-0.147l0,0c-0.741,0.14-1.616,0.708-2.133,1.392l0,0c-0.582,0.769-0.873,1.701-0.775,2.747l0,0 c0.175,1.889,1.706,2.98,3.442,2.968l0,0c1.382-0.012,2.685-0.436,4.252-2.052l0,0c1.462-1.508,2.791-3.758,4.037-5.845l0,0 c0.038-0.067,0.066-0.104,0.256-0.127l0,0c0.781-0.098,1.935-0.213,2.675-0.256l0,0c0.166-0.009,0.199-0.007,0.264,0.077l0,0 c0.194,0.246,0.482,0.456,0.714,0.583l0,0c0.113,0.063,0.167,0.093,0.256,0.096l0,0c0.11,0.003,0.195-0.058,0.249-0.121l0,0 c0.078-0.088,0.101-0.201,0.058-0.275l0,0c-0.044-0.077-0.561-0.368-0.577-0.485l0,0c-0.012-0.074,0.068-0.092,0.068-0.092l0,0 c0.379-0.121,0.774-0.369,1.013-0.835l0,0c0.235-0.458,0.273-1.07-0.158-1.41l0,0c-0.376-0.298-0.946-0.25-1.401,0.163l0,0 c-0.444,0.403-0.592,0.988-0.532,1.501l0,0c0.011,0.089,0.008,0.12-0.114,0.129l0,0c-0.684,0.055-1.343,0.074-2.076,0.113l0,0 c-0.049,0.004-0.064-0.03-0.036-0.065l0,0c0.843-1.489,2.104-2.549,3.495-3.592l0,0c0.091-0.07,0.064-0.203,0.06-0.315l0,0 c2.516,0.555,4.945,1.589,7.557,1.566l0,0c1.079-0.009,2.111-0.175,3.098-0.726l0,0c0.868-0.482,1.339-0.893,1.364-1.355l0,0 c0.021-0.32-0.197-0.521-0.509-0.454l0,0c-2.636,0.615-5.267,0.575-7.892,0.253l0,0c-2.976-0.366-5.831-1.12-8.792-1.12l0,0 c0,0,0,0-0.008,0 M46.662,47.654c-0.038-0.283,0.053-0.662,0.35-0.93l0,0c0.148-0.135,0.351-0.166,0.476-0.058l0,0 c0.139,0.121,0.073,0.421-0.068,0.63l0,0c-0.152,0.23-0.414,0.428-0.651,0.477l0,0c-0.008,0.001-0.013,0.003-0.02,0.003l0,0 C46.713,47.774,46.679,47.745,46.662,47.654"/><path fill="none" stroke="#472b29" stroke-linecap="round" stroke-linejoin="round" stroke-miterlimit="10" d="M38.177,39.937 c1.255-0.197,2.555-0.364,3.892-0.497"/><path fill="none" stroke="#472b29" stroke-linecap="round" stroke-linejoin="round" stroke-miterlimit="10" d="M20.936,47.255 c1.993-2.778,6.875-5.127,13.399-6.59"/><path fill="none" stroke="#472b29" stroke-linecap="round" stroke-linejoin="round" stroke-miterlimit="10" d="M46.158,39.142 c1.258-0.059,2.541-0.089,3.842-0.089c16.596,0,30.049,4.929,30.049,11.009S66.596,61.07,50,61.07s-30.049-4.929-30.049-11.009"/></g></svg>