<svg xmlns="http://www.w3.org/2000/svg"  viewBox="0 0 100 100" width="100px" height="100px"><circle cx="78" cy="14" r="1" fill="#f1bc19"/><circle cx="50" cy="50" r="38" fill="#f9dbd2"/><circle cx="84" cy="16" r="4" fill="#f1bc19"/><circle cx="14" cy="26" r="2" fill="#ee3e54"/><circle cx="78" cy="77" r="2" fill="#fbcd59"/><circle cx="17" cy="78" r="4" fill="#fbcd59"/><circle cx="24" cy="83" r="2" fill="#ee3e54"/><circle cx="66.483" cy="78.517" r="2.483" fill="#fff"/><circle cx="16" cy="48" r="1" fill="#fff"/><circle cx="86" cy="31" r="1" fill="#f1bc19"/><circle cx="80" cy="66" r="2" fill="#fff"/><g><path fill="#1772af" d="M72.45,39.088c-1.529-0.877-3.137-1.587-4.763-2.235c-7.279-2.695-15.836-3.634-23.967-2.569 c-7.493,1.108-14.772,3.029-20.483,8.627c-2.73,2.736-4.356,6.851-3.02,10.799c1.743,4.805,6.39,8,10.533,9.859 c12.254,5.346,28.923,5.159,40.792-0.961c4.065-2.215,8.615-5.891,9.176-11.155C81.2,45.772,76.554,41.512,72.45,39.088z M45.467,41.83c0.985-1.992,2.732-4.331,5.147-4.369c3.191-0.024,6.269,0.275,9.249,0.82c0.112,0.021,0.225,0.04,0.336,0.063 c0.316,0.06,0.63,0.128,0.944,0.193c1.649,0.357,3.249,0.799,4.783,1.319c0.094,0.059,0.18,0.129,0.241,0.234 c0.149,0.329-2.478,1.706-2.645,1.919c-4.105,2.61-5.261,2.735-10.387,4.748c-2.286,0.58-4.621,2.111-7.166,1.53 c-0.595-0.155-1.134-0.56-1.467-1.161C43.869,45.309,44.724,43.416,45.467,41.83z M29.915,58.108 c-0.228,0.223-0.455,0.245-0.677,0.174c-2.143-1.359-4.328-3.281-5.288-5.803c-0.108-0.304-0.172-0.608-0.226-0.909 c-0.017-0.098-0.035-0.197-0.049-0.297c-0.037-0.297-0.055-0.592-0.045-0.883c0-0.034,0.004-0.069,0.004-0.102 c0.104-2.077,1.676-3.617,2.991-4.873C30.7,41.5,36.383,39.76,40.5,39c0,0,0.235-0.336,0.333-0.145l-0.616,0.471 C35.162,45.267,32.962,51.438,29.915,58.108z M54.87,60.331c-0.946,1.526-2.418,2.86-4.193,3.089c-0.07,0-0.137,0.006-0.206,0.006 c-0.661,0-1.317-0.02-1.972-0.044c-0.382-0.015-0.764-0.035-1.145-0.059c-0.777-0.046-1.548-0.109-2.313-0.189 c-0.677-0.072-1.351-0.151-2.02-0.251c-0.45-0.066-0.896-0.139-1.339-0.218c-0.596-0.104-1.185-0.226-1.773-0.35 c-1.669-0.359-3.288-0.8-4.837-1.33c-0.076-0.06-0.147-0.128-0.194-0.21c-0.093-0.271,0.038-0.523,0.222-0.696 c4.106-3.461,8.994-5.066,13.825-6.748c1.802-0.541,3.717-1.122,5.741-0.85c0.836,0.116,1.671,0.716,1.97,1.529 C57.08,56.408,55.873,58.398,54.87,60.331z M77.371,50.562c-0.01,0.348-0.049,0.701-0.125,1.063 c-0.029,0.13-0.07,0.257-0.106,0.384c-0.037,0.13-0.073,0.261-0.116,0.388c-1.103,3.162-4.417,5.472-7.158,6.897 c-2.626,1.291-5.599,2.293-8.769,2.992c-0.255,0.038-0.506,0.091-0.766,0.117c-0.149-0.019-0.39,0.019-0.428-0.213l0.055-0.271 c3.382-3.964,5.945-8.41,8.195-12.915c1.04-2.03,2.007-4.118,2.898-6.167c0.13-0.155,0.26-0.232,0.409-0.29 c0.143,0.013,0.271,0.064,0.402,0.108c1.669,1.094,3.839,2.848,4.893,5.086c0.017,0.037,0.034,0.074,0.05,0.111 c0.089,0.196,0.169,0.397,0.238,0.602c0.094,0.284,0.181,0.569,0.235,0.864c0.007,0.038,0.007,0.077,0.015,0.113 c0.051,0.316,0.078,0.637,0.078,0.966C77.374,50.451,77.372,50.506,77.371,50.562z"/><path fill="none" stroke="#472b29" stroke-linecap="round" stroke-linejoin="round" stroke-miterlimit="10" stroke-width="1.4" d="M72.918,38.941c-1.544-0.879-3.167-1.589-4.809-2.238c-7.35-2.699-15.989-3.64-24.199-2.573 c-7.565,1.11-14.915,3.034-20.681,8.641c-2.757,2.741-4.398,6.861-3.049,10.815c1.759,4.812,6.451,8.013,10.635,9.875 C43.188,68.815,60.018,68.628,72,62.498c4.104-2.219,8.698-5.9,9.264-11.172C81.753,45.636,77.062,41.369,72.918,38.941z"/><path fill="none" stroke="#472b29" stroke-linecap="round" stroke-linejoin="round" stroke-miterlimit="10" d="M56.464,46.098 c-1.105,0.425-2.223,0.818-3.347,1.199c-2.297,0.581-4.612,1.626-7.169,1.045c-0.598-0.155-1.139-0.561-1.474-1.162 c-0.636-1.819,0.223-3.716,0.97-5.303c0.989-1.995,2.745-4.337,5.172-4.375c3.206-0.024,6.299,0.276,9.293,0.821 c0.113,0.021,0.226,0.04,0.338,0.063c0.318,0.06,0.633,0.128,0.949,0.193c1.657,0.357,3.264,0.8,4.806,1.321 c0.095,0.059,0.18,0.129,0.242,0.234c0.15,0.329-0.15,0.542-0.318,0.755c-0.917,0.744-1.866,1.41-2.84,2.013"/><path fill="none" stroke="#472b29" stroke-linecap="round" stroke-linejoin="round" stroke-miterlimit="10" d="M60.436,44.37 c-0.654,0.325-1.317,0.63-1.986,0.919"/><path fill="none" stroke="#472b29" stroke-linecap="round" stroke-linejoin="round" stroke-miterlimit="10" d="M27.996,43.547 c2.818-2.093,5.977-3.403,9.239-4.29"/><path fill="none" stroke="#472b29" stroke-linecap="round" stroke-linejoin="round" stroke-miterlimit="10" d="M37.958,43.006 c-3.286,4.777-5.764,9.985-8.14,15.169c-0.23,0.224-0.457,0.245-0.68,0.174c-2.153-1.361-4.348-3.285-5.313-5.811 c-0.108-0.304-0.173-0.608-0.227-0.91c-0.017-0.098-0.036-0.198-0.049-0.297c-0.037-0.297-0.055-0.593-0.045-0.884 c0-0.034,0.004-0.069,0.004-0.102c0.104-2.08,1.298-3.983,2.618-5.24"/><path fill="none" stroke="#472b29" stroke-linecap="round" stroke-linejoin="round" stroke-miterlimit="10" d="M39.268,38.757 c0.432-0.096,0.864-0.185,1.297-0.269c0.212,0,0.43,0.025,0.528,0.215l-0.075,0.29c-0.584,0.688-1.143,1.389-1.682,2.101"/><path fill="none" stroke="#472b29" stroke-linecap="round" stroke-linejoin="round" stroke-miterlimit="10" d="M54.891,60.401 c-0.95,1.528-2.429,2.863-4.213,3.093c-0.07,0-0.137,0.006-0.207,0.006c-0.664,0-1.323-0.02-1.981-0.044 c-0.384-0.015-0.767-0.036-1.15-0.059c-0.781-0.046-1.555-0.109-2.324-0.189c-0.68-0.072-1.358-0.152-2.029-0.251 c-0.452-0.066-0.9-0.14-1.345-0.218c-0.599-0.104-1.191-0.226-1.781-0.35c-1.677-0.36-3.303-0.801-4.86-1.332 c-0.076-0.06-0.147-0.128-0.195-0.211c-0.093-0.271,0.038-0.523,0.223-0.697c4.126-3.466,9.036-5.072,13.89-6.757 c1.811-0.542,3.734-1.123,5.768-0.851c0.84,0.116,1.679,0.717,1.979,1.531C57.112,56.472,55.899,58.466,54.891,60.401z"/><path fill="none" stroke="#472b29" stroke-linecap="round" stroke-linejoin="round" stroke-miterlimit="10" d="M77.498,50.619 c-0.01,0.348-0.049,0.702-0.125,1.064c-0.029,0.13-0.07,0.257-0.107,0.385c-0.037,0.13-0.074,0.262-0.117,0.388 c-1.109,3.166-4.438,5.479-7.192,6.906c-2.638,1.293-5.626,2.296-8.81,2.996c-0.257,0.038-0.508,0.091-0.77,0.117 c-0.15-0.019-0.392,0.019-0.43-0.213l0.055-0.271c3.398-3.969,5.973-8.421,8.233-12.932c1.045-2.032,2.017-4.123,2.912-6.175 c0.13-0.155,0.261-0.232,0.411-0.29c0.144,0.013,0.273,0.064,0.404,0.108c1.677,1.095,3.857,2.852,4.916,5.092 c0.017,0.037,0.034,0.075,0.05,0.111c0.09,0.196,0.169,0.398,0.239,0.603c0.095,0.284,0.182,0.569,0.236,0.865 c0.007,0.038,0.007,0.077,0.015,0.114c0.052,0.316,0.079,0.638,0.079,0.967C77.502,50.508,77.499,50.563,77.498,50.619z"/></g></svg>