<svg xmlns="http://www.w3.org/2000/svg"  viewBox="0 0 100 100" width="100px" height="100px"><circle cx="77" cy="13" r="1" fill="#f1bc19"/><circle cx="50" cy="50" r="37" fill="#e4e4f9"/><circle cx="83" cy="15" r="4" fill="#f1bc19"/><circle cx="87" cy="24" r="2" fill="#8889b9"/><circle cx="81" cy="76" r="2" fill="#fbcd59"/><circle cx="15" cy="63" r="4" fill="#fbcd59"/><circle cx="25" cy="87" r="2" fill="#8889b9"/><circle cx="18.5" cy="51.5" r="2.5" fill="#fff"/><circle cx="79.5" cy="33.5" r="1.5" fill="#fff"/><g><path fill="#7c8ba2" d="M28.966,51.062c0,1.723-1.351,1.981-2.156,1.981c-1.751,0-1.887-1.545-1.887-2.027l-0.037-2.92 h-6.153l0.037,2.966c0,2.722,1.064,7.288,8.19,7.288c1.921,0,8.189-0.533,8.189-7.388V36.05h-6.184V51.062z"/><path fill="#7c8ba2" d="M57.008,42.486c-4.418,0-6.851,2.785-6.851,7.842c0,3.489,2.401,7.197,6.851,7.197 c3.891,0,6.798-2.602,6.798-4.93v-0.684h-5.394v0.523c-0.123,0.21-0.473,0.657-1.211,0.657c-0.87,0-1.375-0.598-1.508-1.78 h8.166v-0.684C63.858,45.301,61.49,42.486,57.008,42.486z M55.719,47.665c0.216-1.051,0.943-1.051,1.246-1.051 c0.895,0,1.258,0.551,1.404,1.051H55.719z"/><path fill="#7c8ba2" d="M73.566,42.486c-1.535,0-2.592,0.412-3.313,0.92l0.005-0.92h-5.732l-0.014,20.603h5.73v-6.038 c0.955,0.599,2.187,0.919,3.605,0.919c3.83,0,6.403-3.239,6.403-8.061C80.25,44.43,76.649,42.486,73.566,42.486z M72.431,53.427 c-0.703,0-1.203-0.162-1.529-0.494c-0.472-0.481-0.688-1.415-0.66-2.854c0.025-1.147,0.314-3.07,1.977-3.07 c1.232,0,2.052,0.493,2.052,2.9C74.271,53.427,72.934,53.427,72.431,53.427z"/><path fill="#7c8ba2" d="M42.622,42.486c-4.418,0-6.851,2.785-6.851,7.842c0,3.489,2.401,7.197,6.851,7.197 c3.891,0,6.798-2.602,6.798-4.93v-0.684h-5.394v0.523c-0.123,0.21-0.473,0.657-1.211,0.657c-0.87,0-1.375-0.598-1.508-1.78 h8.166v-0.684C49.473,45.301,47.104,42.486,42.622,42.486z M41.333,47.665c0.216-1.051,0.943-1.051,1.246-1.051 c0.895,0,1.258,0.551,1.404,1.051H41.333z"/><path fill="#472b29" d="M34.45,36.4v14.481c0,2.189-0.838,6.704-7.506,6.704c-6.68,0-7.506-4.203-7.506-6.604L19.41,48.4 h4.786l0.029,2.544c0,1.401,0.929,2.54,2.705,2.54c1.751,0,2.704-0.827,2.704-2.503V36.4H34.45 M34.45,35h-4.816 c-0.773,0-1.4,0.627-1.4,1.4v14.581c0,0.666-0.091,1.103-1.304,1.103c-0.866,0-1.305-0.384-1.305-1.14l-0.029-2.56 C25.586,47.617,24.962,47,24.195,47H19.41c-0.374,0-0.733,0.15-0.996,0.416c-0.263,0.266-0.409,0.626-0.404,1l0.029,2.581 c0,5.071,3.246,7.988,8.905,7.988c8.263,0,8.906-6.203,8.906-8.104V36.4C35.85,35.627,35.223,35,34.45,35L34.45,35z"/><path fill="#472b29" d="M57.058,43.395c2.804,0,6.138,1.164,6.138,7.519h-8.201c0,2.029,0.968,2.734,2.39,2.734 c1.426,0,1.784-0.682,1.784-0.684h4.027c0,1.823-2.486,4.101-6.138,4.101c-3.925,0-6.167-3.214-6.167-6.513 C50.891,47.248,52.012,43.395,57.058,43.395 M55.024,48.574h4.173c0-1.233-0.639-2.445-2.153-2.445 C55.57,46.129,55.024,47.248,55.024,48.574 M63.197,52.965h0.005 M57.058,41.995c-4.809,0-7.567,3.119-7.567,8.558 c0,3.836,2.652,7.913,7.567,7.913c4.379,0,7.45-2.817,7.536-5.39c0.003-0.037,0.004-0.074,0.004-0.111 c0-0.406-0.172-0.771-0.447-1.027c0.274-0.256,0.445-0.62,0.445-1.024C64.597,47.583,63.617,41.995,57.058,41.995L57.058,41.995 z"/><path fill="#472b29" d="M42.673,43.395c2.804,0,6.138,1.164,6.138,7.519h-8.201c0,2.029,0.968,2.734,2.39,2.734 c1.426,0,1.784-0.682,1.784-0.684h4.027c0,1.823-2.486,4.101-6.138,4.101c-3.925,0-6.167-3.214-6.167-6.513 C36.505,47.248,37.626,43.395,42.673,43.395 M40.638,48.574h4.173c0-1.233-0.639-2.445-2.153-2.445 C41.184,46.129,40.638,47.248,40.638,48.574 M48.811,52.965h0.005 M42.673,41.995c-4.809,0-7.567,3.119-7.567,8.558 c0,3.836,2.652,7.913,7.567,7.913c4.379,0,7.45-2.817,7.536-5.39c0.003-0.037,0.004-0.074,0.004-0.111 c0-0.406-0.172-0.771-0.447-1.027c0.274-0.256,0.445-0.62,0.445-1.024C50.211,47.583,49.231,41.995,42.673,41.995L42.673,41.995 z"/><g><path fill="#472b29" d="M73.586,43.364c2.255,0,5.999,1.226,5.999,6.74c0,4.259-2.2,7.615-5.824,7.615 c-3.022,0-4-1.768-4.184-2.013V62.6h-4.362l0.013-19.236h4.362l-0.013,2.072C69.736,45.097,70.602,43.364,73.586,43.364 M72.914,54.301c2.229,0,2.557-2.301,2.557-4.058c0-1.759-0.432-3.461-2.771-3.461c-1.431,0-2.637,1.049-2.695,3.611 C69.953,52.954,70.68,54.301,72.914,54.301 M73.586,41.964c-1.188,0-2.128,0.233-2.867,0.571 c-0.041-0.056-0.086-0.109-0.135-0.158c-0.263-0.264-0.62-0.413-0.993-0.413h-4.362c-0.773,0-1.399,0.626-1.4,1.399 l-0.013,19.236c0,0.371,0.147,0.728,0.41,0.991S64.845,64,65.216,64h4.362c0.773,0,1.4-0.627,1.4-1.4v-3.997 c0.964,0.399,1.954,0.515,2.784,0.515c4.253,0,7.224-3.707,7.224-9.015C80.986,44.096,77,41.964,73.586,41.964L73.586,41.964z M72.914,52.901c-0.527,0-0.89-0.098-1.079-0.29c-0.212-0.217-0.46-0.773-0.431-2.19c0.023-1.02,0.267-2.239,1.296-2.239 c0.705,0,1.371,0,1.371,2.061C74.071,52.901,73.29,52.901,72.914,52.901L72.914,52.901z"/></g><line x1="76.45" x2="78.5" y1="38.5" y2="38.5" fill="none" stroke="#472b29" stroke-linecap="round" stroke-linejoin="round" stroke-miterlimit="10"/><line x1="69.5" x2="73.5" y1="38.5" y2="38.5" fill="none" stroke="#472b29" stroke-linecap="round" stroke-linejoin="round" stroke-miterlimit="10"/><line x1="39.5" x2="66.5" y1="38.5" y2="38.5" fill="none" stroke="#472b29" stroke-linecap="round" stroke-linejoin="round" stroke-miterlimit="10"/><line x1="49.45" x2="60.487" y1="61.5" y2="61.5" fill="none" stroke="#472b29" stroke-linecap="round" stroke-linejoin="round" stroke-miterlimit="10"/><line x1="43.5" x2="46.5" y1="61.5" y2="61.5" fill="none" stroke="#472b29" stroke-linecap="round" stroke-linejoin="round" stroke-miterlimit="10"/><line x1="21.45" x2="40.5" y1="61.5" y2="61.5" fill="none" stroke="#472b29" stroke-linecap="round" stroke-linejoin="round" stroke-miterlimit="10"/></g></svg>