<svg xmlns="http://www.w3.org/2000/svg"  viewBox="0 0 100 100" width="100px" height="100px"><circle cx="13" cy="29" r="2" fill="#ee3e54"/><circle cx="77" cy="13" r="1" fill="#f1bc19"/><circle cx="50" cy="50" r="37" fill="#fce0a2"/><circle cx="83" cy="15" r="4" fill="#f1bc19"/><circle cx="87" cy="24" r="2" fill="#ee3e54"/><circle cx="81" cy="76" r="2" fill="#fbcd59"/><circle cx="15" cy="63" r="4" fill="#fbcd59"/><circle cx="25" cy="87" r="2" fill="#ee3e54"/><circle cx="18.5" cy="53.5" r="2.5" fill="#fff"/><circle cx="21" cy="67" r="1" fill="#f1bc19"/><circle cx="80" cy="34" r="1" fill="#fff"/><g><polygon fill="#a2b3cb" points="70.312,50.992 58.824,50.992 50.007,35.558 41.189,50.992 29.702,50.992 44.931,25.698 55.083,25.698"/><polygon fill="#8e9cb3" points="70.312,50.992 55.083,76.285 44.931,76.285 29.702,50.992 41.189,50.992 50,66.45 58.824,50.992"/><polyline fill="none" stroke="#472b29" stroke-linecap="round" stroke-linejoin="round" stroke-miterlimit="10" stroke-width="1.4" points="29.702,50.992 44.931,25.698 55.083,25.698 70.312,50.992"/><polyline fill="none" stroke="#472b29" stroke-linecap="round" stroke-linejoin="round" stroke-miterlimit="10" stroke-width="1.4" points="58.824,50.992 50.007,35.558 41.189,50.992"/><polyline fill="none" stroke="#472b29" stroke-linecap="round" stroke-linejoin="round" stroke-miterlimit="10" stroke-width="1.4" points="41.189,50.992 50,66.45 58.824,50.992"/><polyline fill="none" stroke="#472b29" stroke-linecap="round" stroke-linejoin="round" stroke-miterlimit="10" stroke-width="1.4" points="70.312,50.992 55.083,76.285 44.931,76.285 29.702,50.992"/><line x1="58.818" x2="47.498" y1="51.274" y2="70.867" fill="none" stroke="#472b29" stroke-linecap="round" stroke-linejoin="round" stroke-miterlimit="10" stroke-width="1.4"/><line x1="41.189" x2="52.509" y1="50.734" y2="31.14" fill="none" stroke="#472b29" stroke-linecap="round" stroke-linejoin="round" stroke-miterlimit="10" stroke-width="1.4"/><line x1="34.953" x2="29.833" y1="50.64" y2="50.64" fill="none" stroke="#472b29" stroke-linecap="round" stroke-linejoin="round" stroke-miterlimit="10"/><line x1="41.32" x2="38.454" y1="50.64" y2="50.64" fill="none" stroke="#472b29" stroke-linecap="round" stroke-linejoin="round" stroke-miterlimit="10"/><line x1="70.18" x2="58.693" y1="50.64" y2="50.64" fill="none" stroke="#472b29" stroke-linecap="round" stroke-linejoin="round" stroke-miterlimit="10"/><line x1="65.266" x2="66.111" y1="54.153" y2="52.748" fill="none" stroke="#472b29" stroke-linecap="round" stroke-linejoin="round" stroke-miterlimit="10"/><line x1="59.776" x2="63.999" y1="63.287" y2="56.261" fill="none" stroke="#472b29" stroke-linecap="round" stroke-linejoin="round" stroke-miterlimit="10"/><line x1="56.658" x2="58.509" y1="68.473" y2="65.395" fill="none" stroke="#472b29" stroke-linecap="round" stroke-linejoin="round" stroke-miterlimit="10"/></g></svg>