<svg xmlns="http://www.w3.org/2000/svg"  viewBox="0 0 100 100" width="100px" height="100px"><circle cx="77" cy="13" r="1" fill="#f1bc19"/><circle cx="50" cy="50" r="37" fill="#e6edb7"/><circle cx="83" cy="15" r="4" fill="#f1bc19"/><circle cx="87" cy="24" r="2" fill="#88ae45"/><circle cx="81" cy="76" r="2" fill="#fbcd59"/><circle cx="15" cy="63" r="4" fill="#fbcd59"/><circle cx="25" cy="87" r="2" fill="#88ae45"/><circle cx="18.5" cy="51.5" r="2.5" fill="#fff"/><circle cx="79.5" cy="33.5" r="1.5" fill="#fff"/><g><path fill="#b1bdd0" d="M50.4,30.944c-16.183,0-29.3,8.728-29.3,19.494s13.117,19.494,29.3,19.494s29.3-8.728,29.3-19.494 S66.583,30.944,50.4,30.944z M50.4,66.033c-13.367,0-24.204-6.983-24.204-15.595S37.033,34.843,50.4,34.843 s24.204,6.983,24.204,15.595S63.767,66.033,50.4,66.033z"/><path fill="#b1bdd0" d="M50.4,30.944c-11.258,0-20.383,4.364-20.383,9.747s9.125,9.747,20.383,9.747 s20.383-4.364,20.383-9.747S61.658,30.944,50.4,30.944z M50.4,46.539c-8.442,0-15.287-2.944-15.287-6.173 c0-3.229,6.845-5.523,15.287-5.523s15.287,2.294,15.287,5.523S58.842,46.539,50.4,46.539z"/><ellipse cx="50.451" cy="50.5" fill="none" stroke="#472b29" stroke-linecap="round" stroke-linejoin="round" stroke-miterlimit="10" stroke-width="1.4" rx="28.791" ry="19.8"/><path fill="#b1bdd0" d="M50.4,34.843c-4.222,0-7.643,6.983-7.643,15.595s3.422,15.595,7.643,15.595 s7.643-6.983,7.643-15.595S54.622,34.843,50.4,34.843z M50.4,60.834c-2.111,0-3.822-4.655-3.822-10.397s1.711-10.397,3.822-10.397 c2.111,0,3.822,4.655,3.822,10.397S52.511,60.834,50.4,60.834z"/><path fill="none" stroke="#472b29" stroke-linecap="round" stroke-linejoin="round" stroke-miterlimit="10" stroke-width="1.4" d="M50.497,34.7c3.538,0,6.531,4.651,7.538,11.062c4.923-1.101,8.265-3.214,8.265-5.464C66.3,37.025,59.224,34.7,50.497,34.7z"/><path fill="none" stroke="#472b29" stroke-linecap="round" stroke-linejoin="round" stroke-miterlimit="10" stroke-width="1.4" d="M50.4,39.6c-1.603,0-2.978,2.783-3.569,6.752c1.146,0.121,2.34,0.188,3.569,0.188c1.229,0,2.423-0.067,3.569-0.188 C53.378,42.383,52.003,39.6,50.4,39.6z"/><path fill="none" stroke="#472b29" stroke-linecap="round" stroke-linejoin="round" stroke-miterlimit="10" stroke-width="1.4" d="M34.7,40.298c0,2.25,3.341,4.362,8.262,5.464c1.007-6.411,3.999-11.062,7.535-11.062C41.773,34.7,34.7,37.025,34.7,40.298z"/><g><path fill="none" stroke="#472b29" stroke-linecap="round" stroke-linejoin="round" stroke-miterlimit="10" stroke-width="1.4" d="M42.666,50.419c0-0.243,0.013-0.48,0.018-0.721c-6.907-1.327-11.981-4.358-12.91-7.998c-2.573,2.503-4.074,5.498-4.074,8.719 c0,8.77,11.102,15.881,24.797,15.881C46.172,66.3,42.666,59.189,42.666,50.419z"/><path fill="none" stroke="#472b29" stroke-linecap="round" stroke-linejoin="round" stroke-miterlimit="10" stroke-width="1.4" d="M46.508,50.305c0,0.06-0.003,0.118-0.003,0.178c0,5.974,1.744,10.818,3.895,10.818c2.152,0,3.895-4.844,3.895-10.818 c0-0.06-0.003-0.118-0.003-0.178c-1.261,0.117-2.562,0.178-3.892,0.178S47.769,50.421,46.508,50.305z"/><path fill="none" stroke="#472b29" stroke-linecap="round" stroke-linejoin="round" stroke-miterlimit="10" stroke-width="1.4" d="M71.224,41.7c-0.929,3.64-6.004,6.672-12.913,7.998c0.005,0.241,0.018,0.477,0.018,0.721c0,8.77-3.506,15.881-7.833,15.881 c13.698,0,24.803-7.111,24.803-15.881C75.3,47.198,73.798,44.203,71.224,41.7z"/></g></g></svg>