<svg xmlns="http://www.w3.org/2000/svg"  viewBox="0 0 100 100" width="100px" height="100px"><circle cx="77" cy="13" r="1" fill="#f1bc19"/><circle cx="50" cy="50" r="37" fill="#e6edb7"/><circle cx="83" cy="15" r="4" fill="#f1bc19"/><circle cx="87" cy="24" r="2" fill="#88ae45"/><circle cx="81" cy="76" r="2" fill="#fbcd59"/><circle cx="15" cy="63" r="4" fill="#fbcd59"/><circle cx="25" cy="87" r="2" fill="#88ae45"/><circle cx="18.5" cy="51.5" r="2.5" fill="#fff"/><circle cx="79.5" cy="33.5" r="1.5" fill="#fff"/><g><circle cx="50" cy="50.3" r="24.246" fill="#1772af"/><path fill="#472b29" d="M50,26.4c13.013,0,23.6,10.587,23.6,23.6S63.013,73.6,50,73.6S26.4,63.013,26.4,50 S36.987,26.4,50,26.4 M50,25c-13.807,0-25,11.193-25,25s11.193,25,25,25s25-11.193,25-25S63.807,25,50,25L50,25z"/></g><g><path fill="#dee0e2" d="M50.004,29.735c-11.197,0-20.271,9.074-20.271,20.261c0,11.197,9.074,20.271,20.271,20.271 c11.187,0,20.261-9.074,20.261-20.271C70.265,38.809,61.191,29.735,50.004,29.735z M50.004,32.482c1.769,0,3.497,0.271,5.11,0.76 l-5.11,10.229l-5.12-10.229C46.497,32.753,48.225,32.482,50.004,32.482z M32.48,49.996c0-1.061,0.152-0.889,0.35-1.909 l1.918,3.972l0.999,2.06l5.153,10.627C35.363,61.811,32.48,56.708,32.48,49.996z M50.004,67.52c-0.822,0-1.654-0.525-2.445-0.639 l-2.06-0.406c-0.572-0.156-1.114,0.14-1.666-0.079l6.171-10.552l6.161,10.552C54.24,67.124,52.169,67.52,50.004,67.52z M53.095,51.036h-6.192l-3.777,6.868l-7.961-17.212c1.394-2.216,3.268-4.11,5.495-5.505l6.244,13.091h6.192l6.407-12.394 c1.546,1.025,3.509,2.733,4.78,4.845l-2.056,4.443l-0.635,1.374L56.76,56.982L53.095,51.036z M58.215,65.47l9.022-18.596 c0.187,1.009,0.281,2.06,0.281,3.122C67.518,56.708,63.74,62.535,58.215,65.47z"/><circle cx="49.999" cy="50.001" r="20.501" fill="none" stroke="#472b29" stroke-linecap="round" stroke-linejoin="round" stroke-miterlimit="10"/><path fill="none" stroke="#472b29" stroke-linecap="round" stroke-linejoin="round" stroke-miterlimit="10" d="M64.408,40.04 c0.148,0.214,0.291,0.432,0.43,0.653l-0.97,2.095"/><path fill="none" stroke="#472b29" stroke-linecap="round" stroke-linejoin="round" stroke-miterlimit="10" d="M60.991,49 l-4.122,8.901l-3.778-6.87h-6.183l-3.778,6.87L35.16,40.692c1.395-2.219,3.277-4.108,5.496-5.51l6.252,13.101h6.183 l6.238-13.108c1.24,0.781,2.376,1.713,3.38,2.771"/><line x1="62.595" x2="61.959" y1="45.536" y2="46.91" fill="none" stroke="#472b29" stroke-linecap="round" stroke-linejoin="round" stroke-miterlimit="10"/><path fill="none" stroke="#472b29" stroke-linecap="round" stroke-linejoin="round" stroke-miterlimit="10" d="M45.533,66.944 c-0.578-0.153-1.144-0.335-1.697-0.545l6.162-10.559l6.162,10.559c-1.917,0.728-3.991,1.12-6.162,1.12 c-0.816,0-1.619-0.055-2.404-0.163"/><g><path fill="none" stroke="#472b29" stroke-linecap="round" stroke-linejoin="round" stroke-miterlimit="10" d="M37.125,55.84 l4.672,9.638c-5.537-2.933-9.316-8.766-9.316-15.478c0-1.072,0.096-2.13,0.289-3.146l1.359,2.803"/><line x1="35.127" x2="36.126" y1="51.718" y2="53.779" fill="none" stroke="#472b29" stroke-linecap="round" stroke-linejoin="round" stroke-miterlimit="10"/><path fill="none" stroke="#472b29" stroke-linecap="round" stroke-linejoin="round" stroke-miterlimit="10" d="M49.999,43.475 l-5.111-10.229c1.614-0.495,3.332-0.763,5.111-0.763c1.779,0,3.497,0.268,5.111,0.763L49.999,43.475z"/><path fill="none" stroke="#472b29" stroke-linecap="round" stroke-linejoin="round" stroke-miterlimit="10" d="M67.517,50.001 c0,6.705-3.772,12.531-9.302,15.471l9.02-18.597C67.421,47.885,67.517,48.936,67.517,50.001z"/></g><g><line x1="62.596" x2="61.961" y1="45.532" y2="46.905" fill="none"/><line x1="36.122" x2="35.123" y1="53.784" y2="51.723" fill="none"/></g></g></svg>